<?xml version="1.0" standalone="no"?>
<!DOCTYPE svg PUBLIC "-//W3C//DTD SVG 20010904//EN"
 "http://www.w3.org/TR/2001/REC-SVG-20010904/DTD/svg10.dtd">
<svg version="1.0" xmlns="http://www.w3.org/2000/svg"
 width="968.000000pt" height="968.000000pt" viewBox="0 0 968.000000 968.000000"
 preserveAspectRatio="xMidYMid meet">
<metadata>
Created by potrace 1.14, written by Peter Selinger 2001-2017
</metadata>
<g transform="translate(0.000000,968.000000) scale(0.100000,-0.100000)"
fill="#000000" stroke="none">
<path d="M7247 6624 c-1 -1 -27 -5 -57 -8 -116 -12 -160 -26 -135 -44 38 -26
114 -158 139 -239 l7 -22 -73 25 c-40 14 -80 27 -88 29 -8 2 -35 8 -60 14 -41
9 -165 8 -200 -2 -69 -19 -145 -60 -221 -117 -69 -52 -169 -143 -169 -154 0
-4 19 -4 43 -1 54 8 82 13 82 15 0 1 18 3 40 5 22 2 56 7 75 10 56 10 433 14
423 4 -4 -4 -24 -10 -43 -12 -20 -2 -41 -7 -48 -11 -7 -4 -12 -5 -12 -1 0 3
-13 -1 -29 -10 -17 -8 -38 -17 -48 -19 -61 -12 -183 -94 -183 -124 0 -6 -4
-12 -9 -14 -5 -1 -18 -30 -30 -63 -17 -50 -20 -80 -17 -180 2 -66 6 -131 9
-145 4 -14 12 -47 18 -75 7 -27 18 -64 25 -81 7 -17 11 -34 9 -38 -3 -3 -1 -3
4 1 6 5 12 19 15 33 36 183 156 369 304 472 46 32 158 86 189 93 11 2 37 8 57
14 32 8 38 7 43 -7 3 -9 11 -30 18 -47 14 -32 85 -245 86 -257 0 -4 5 -22 10
-40 10 -33 15 -51 23 -85 2 -10 9 -38 15 -63 17 -68 20 -82 27 -120 4 -19 8
-44 11 -55 18 -93 23 -120 29 -162 3 -26 8 -56 10 -66 2 -11 6 -45 10 -77 l6
-58 -233 0 c-226 1 -561 -8 -644 -17 -22 -3 -78 -7 -124 -10 -92 -5 -180 -14
-224 -21 -16 -2 -50 -7 -75 -9 -26 -2 -58 -7 -72 -9 -14 -3 -43 -7 -65 -11
-40 -5 -143 -23 -180 -30 -11 -2 -31 -7 -45 -11 -14 -4 -334 -8 -712 -10
l-688 -2 0 294 c0 162 -3 295 -7 295 -35 6 -586 2 -590 -4 -2 -4 -4 -84 -3
-178 l1 -170 -98 3 -98 3 0 589 c0 580 0 589 -20 596 -11 4 -24 5 -29 2 -18
-10 -196 -7 -196 3 0 7 -3 7 -8 0 -7 -11 -222 -14 -222 -4 0 11 -50 -3 -51
-15 0 -6 -2 -92 -2 -191 l-2 -180 -147 -3 -148 -3 -1 -32 c0 -17 -1 -117 -2
-222 l-2 -190 -125 -1 c-69 0 -130 2 -137 4 -9 3 -12 143 -12 575 0 315 0 581
-1 592 0 20 -7 20 -485 20 l-485 0 0 -667 c0 -438 -3 -668 -10 -669 -5 0 -23
-1 -40 -1 -16 0 -34 1 -38 1 -4 1 -8 181 -7 401 0 260 -4 400 -10 401 -14 0
-332 0 -376 0 l-36 -1 0 -474 c0 -260 -3 -478 -6 -483 -7 -12 -82 -11 -93 0
-5 4 -9 63 -10 130 -1 67 -2 127 -3 134 -1 8 -87 11 -323 11 -178 0 -330 -2
-340 -4 -14 -4 -16 -28 -16 -212 0 -114 -1 -239 -1 -278 l-1 -72 -138 0 c-75
0 -145 -1 -154 -1 -17 -1 -18 -51 -18 -896 0 -709 3 -895 13 -896 16 -1 9615
-1 9645 0 l22 1 0 895 c0 845 -1 895 -17 896 -10 0 -243 1 -518 3 -275 1 -509
5 -520 9 -35 10 -108 25 -150 31 -22 3 -51 8 -65 11 -51 9 -126 18 -157 19
-18 1 -33 3 -33 6 0 3 -18 6 -41 7 -22 0 -43 4 -46 7 -3 3 5 21 17 40 12 20
17 36 12 36 -6 0 -12 -3 -14 -7 -1 -5 -22 -20 -44 -35 -35 -22 -52 -26 -100
-25 -33 1 -63 5 -69 8 -5 4 -19 5 -30 3 -36 -7 -65 5 -65 26 0 22 -4 23 -117
21 -68 -2 -97 9 -71 25 12 8 42 11 136 13 27 1 41 5 37 11 -4 6 -9 23 -11 38
-3 15 -10 45 -16 67 -10 41 -17 69 -22 95 -2 12 -20 15 -88 14 -75 -1 -85 1
-81 16 3 11 15 17 36 17 41 1 108 11 114 17 5 5 -22 107 -37 141 -4 11 -11 31
-14 45 -5 25 -6 25 -78 19 -75 -6 -98 -3 -98 11 0 12 26 19 87 24 64 5 75 11
64 34 -5 9 -22 54 -37 100 -25 74 -33 87 -56 83 -4 0 -31 -4 -60 -7 -29 -3
-55 -7 -58 -8 -6 -1 -10 9 -10 24 0 6 6 10 13 9 6 -1 38 1 69 5 l56 8 -13 37
c-15 43 -51 125 -71 164 -16 29 -12 49 9 42 7 -2 35 -6 62 -9 28 -3 61 -7 75
-10 14 -3 38 -8 54 -12 78 -17 175 -87 243 -176 18 -25 70 -142 79 -180 1 -5
2 -9 4 -10 1 -2 3 -10 5 -18 1 -8 8 -40 14 -70 6 -30 12 -76 14 -102 4 -85 19
-73 115 84 38 63 77 151 88 198 14 63 9 151 -13 210 -3 8 -7 20 -8 27 -7 30
-76 105 -130 140 -108 70 -227 99 -450 108 -38 2 -74 4 -80 4 -25 2 151 105
205 119 25 6 123 5 155 -3 17 -4 35 -8 40 -9 6 -1 20 -7 31 -14 12 -6 24 -8
28 -5 3 3 6 2 6 -4 0 -6 10 -13 23 -17 21 -5 60 -26 132 -69 11 -7 35 -23 54
-36 44 -32 39 -17 -31 86 -68 102 -170 201 -242 236 -75 37 -87 40 -177 42
-61 2 -92 -4 -160 -26 -46 -16 -85 -34 -87 -39 -2 -6 -9 -10 -16 -10 -7 0 -32
-13 -54 -30 -50 -36 -53 -36 -48 -7 3 12 5 28 5 36 1 7 31 42 68 77 59 57 64
64 41 64 -14 0 -38 4 -54 9 -46 15 -257 35 -267 25z m-5402 -123 c11 -1 14
-199 3 -216 -3 -5 -28 -8 -56 -7 l-49 4 -1 106 c0 58 1 109 3 112 3 5 66 6
100 1z m227 -108 l3 -113 -60 0 -60 0 1 104 c1 58 4 109 7 113 3 5 28 9 56 9
l50 -1 3 -112z m209 87 c2 -75 -1 -193 -5 -198 -6 -6 -95 -7 -100 -1 -6 6 -8
61 -7 149 l1 76 55 -1 c52 0 55 -1 56 -25z m-431 -289 c4 -1 5 -169 1 -208 -1
-9 -19 -13 -56 -13 l-55 0 2 108 c0 59 3 110 4 113 3 6 85 6 104 0z m220 -108
l0 -113 -55 0 c-37 0 -55 4 -56 13 -1 14 -1 212 0 212 1 0 26 1 56 1 l55 1 0
-114z m1273 15 c-2 -148 5 -134 -58 -133 l-55 0 -1 35 c-2 108 0 180 5 188 2
4 28 5 57 2 l53 -5 -1 -87z m160 -10 c-1 -54 -2 -104 -2 -110 -1 -9 -19 -13
-56 -13 l-55 0 0 113 0 113 57 -3 57 -3 -1 -97z m-2245 -186 l3 -112 -58 0
-58 0 2 103 c0 56 2 107 2 112 1 6 25 10 53 10 l53 -1 3 -112z m212 109 c4 -1
6 -50 6 -110 l0 -109 -44 -4 c-24 -2 -49 0 -55 4 -8 5 -12 44 -13 112 l-1 105
26 3 c22 3 60 2 81 -1z m1865 -103 c4 -4 8 -52 8 -107 2 -112 3 -111 -69 -111
l-44 0 -1 50 c0 28 -1 64 -1 80 0 17 1 45 1 64 l1 34 49 -2 c27 -1 53 -4 56
-8z m-1500 -17 c19 -1 20 -8 20 -111 1 -92 -2 -110 -15 -111 -8 0 -34 -2 -56
-2 l-42 -2 0 110 c0 61 4 112 9 115 4 3 21 5 36 4 15 -1 37 -3 48 -3z m-575
-298 c0 -93 -3 -113 -15 -114 -52 -3 -86 -2 -90 3 -9 9 -11 218 -2 221 4 1 30
2 57 2 l50 0 0 -112z m2816 -350 l2 -112 -56 2 -57 2 -1 105 c0 58 1 108 2
111 2 3 27 6 56 5 l53 -1 1 -112z m167 108 c5 -1 5 -6 2 -11 -9 -15 -12 -120
-4 -120 4 0 3 -16 -1 -35 -5 -21 -4 -35 2 -35 5 0 6 -4 3 -10 -3 -5 -32 -8
-63 -7 l-57 2 0 112 0 111 55 -3 c30 -1 59 -3 63 -4z m-3731 -53 c4 -11 3
-191 -1 -209 -1 -4 -81 -5 -102 0 -7 1 -9 202 -2 214 7 12 100 8 105 -5z m199
-3 c0 -8 0 -40 0 -70 0 -30 0 -75 0 -99 l-1 -43 -51 1 c-27 1 -53 7 -57 13 -6
9 -7 87 -3 191 1 20 6 22 56 22 42 0 55 -4 56 -15z m1256 -218 l-2 -111 -34
-4 c-75 -8 -77 -5 -75 115 1 59 2 109 3 109 0 1 26 2 56 2 l54 -1 -2 -110z
m218 8 c0 -55 -1 -106 -3 -112 -3 -9 -23 -12 -58 -12 l-54 2 0 107 c0 59 2
109 5 112 3 2 28 4 57 4 l52 -1 1 -100z m1881 -4 c7 -1 10 -39 10 -113 l-1
-113 -52 0 c-29 0 -54 2 -54 5 -1 3 -2 51 -3 108 -1 76 2 105 11 111 11 6 42
7 89 2z m-3120 -279 l0 -108 -57 0 -57 0 0 114 c0 81 3 112 12 109 6 -2 20 -1
31 3 11 4 32 3 46 -2 25 -9 25 -10 25 -116z m6587 116 c20 -1 27 -7 27 -22 1
-12 3 -45 6 -73 3 -29 3 -53 0 -53 -3 0 -34 18 -69 39 -35 21 -78 46 -95 55
l-31 16 25 -52 c14 -29 32 -70 42 -90 30 -67 156 -103 352 -100 154 2 253 24
295 66 7 6 39 31 73 56 34 24 60 45 59 47 -4 3 -143 -33 -156 -41 -19 -12 -12
12 19 63 21 33 37 49 48 47 9 -2 48 -7 85 -11 37 -3 78 -8 90 -11 12 -2 36 -6
52 -8 105 -15 336 -64 407 -87 34 -10 71 -21 82 -24 75 -16 227 -86 291 -134
120 -91 114 -190 -15 -281 -43 -31 -139 -78 -170 -84 -3 -1 -9 -4 -15 -8 -8
-5 -62 -22 -107 -34 -5 -1 -9 -2 -10 -4 -2 -1 -10 -3 -18 -5 -8 -2 -59 -15
-113 -29 -53 -14 -110 -27 -125 -30 -15 -2 -79 -13 -142 -25 -106 -18 -175
-29 -240 -36 -14 -1 -54 -6 -90 -10 -36 -4 -81 -9 -100 -10 -19 -1 -69 -5
-110 -9 -175 -14 -312 -19 -603 -20 -170 -1 -311 2 -313 6 -3 5 -13 4 -23 -2
-10 -5 -20 -7 -23 -5 -2 2 -58 7 -123 10 -66 4 -138 8 -160 11 -22 2 -78 6
-125 9 -46 3 -91 7 -100 10 -8 2 -46 7 -85 11 -38 3 -79 8 -90 10 -31 7 -77
14 -112 18 -18 3 -56 9 -85 15 -29 6 -64 13 -78 15 -55 10 -136 28 -150 33 -8
3 -19 7 -25 9 -5 1 -30 7 -55 13 -25 7 -49 13 -55 14 -155 41 -327 135 -371
202 -37 57 -22 130 40 188 48 46 190 115 296 147 41 12 86 26 100 30 14 5 36
11 50 14 14 2 32 7 40 10 8 3 32 8 54 11 21 3 42 8 47 11 5 2 21 7 36 9 16 2
39 6 53 9 23 4 63 11 130 22 59 10 97 15 130 19 19 2 49 6 65 9 17 4 59 9 95
11 131 10 168 13 241 20 41 3 127 8 192 10 65 2 120 5 122 7 3 3 481 0 538 -4z
m-6427 -111 l-1 -111 -55 -1 -55 0 -1 105 c0 58 1 108 3 111 1 4 27 7 57 8
l53 0 -1 -112z m6894 83 c37 -1 37 -1 -17 -38 -10 -7 -40 -28 -67 -47 -27 -19
-51 -34 -52 -32 -1 1 -5 30 -9 65 l-6 63 58 -5 c32 -3 74 -5 93 -6z m-6033
-126 l2 -111 -57 1 -57 1 0 100 c-1 55 1 105 3 111 2 7 24 11 55 10 l52 -1 2
-111z m1688 -198 l-1 -111 -57 -3 -57 -3 0 109 c0 60 2 111 4 113 3 2 29 5 58
5 l53 1 0 -111z m161 -3 l1 -113 -56 0 -57 0 2 113 c1 61 2 112 3 113 0 0 25
0 54 0 l52 -1 1 -112z m-2876 78 c3 0 6 -50 6 -111 l0 -110 -58 0 -58 0 2 108
c1 59 3 109 4 113 2 4 83 4 104 0z m2658 -245 c6 -4 12 -3 12 3 0 6 8 7 22 2
21 -8 22 -14 23 -107 1 -54 -1 -104 -2 -110 -3 -6 -25 -10 -56 -9 l-52 2 -3
103 c-1 57 -1 109 2 115 5 13 34 14 54 1z m-1121 -49 c7 -5 10 -13 8 -18 -6
-9 -8 -156 -3 -179 2 -12 -10 -15 -54 -17 -53 -1 -58 1 -59 20 0 12 -1 63 -2
114 l-2 91 50 0 c28 -1 56 -5 62 -11z m167 -102 l0 -110 -56 -3 c-55 -3 -56
-2 -60 27 -2 17 0 37 4 45 5 9 5 16 1 16 -9 0 -9 98 0 106 3 3 3 12 0 20 -4
11 7 13 53 11 l59 -2 -1 -110z m-168 -180 c3 -19 5 -55 4 -102 0 -12 0 -26 1
-30 1 -4 1 -22 0 -40 -1 -31 -2 -31 -56 -35 -49 -3 -55 -1 -56 17 -1 25 -1
198 0 206 1 3 24 5 53 5 43 -1 52 -5 54 -21z"/>
</g>
</svg>
